<svg width="95" height="92" viewBox="0 0 95 92" fill="none" xmlns="http://www.w3.org/2000/svg">
<g clip-path="url(#clip0_258_484)">
<path d="M31.667 73.8359H25.918V65.0605C25.918 59.6585 30.7245 55.2472 36.662 55.2472H58.3622C64.2761 55.2472 69.1062 59.6349 69.1062 65.0605V73.8123H63.3572V65.0605C63.3572 62.8431 61.1189 61.0267 58.3857 61.0267H36.6856C33.9524 61.0267 31.7141 62.8431 31.7141 65.0605V73.8359H31.667Z" fill="#4B67B1"/>
<path d="M47.4994 53.4544C41.4206 53.4544 36.4727 48.5005 36.4727 42.4144C36.4727 36.3282 41.4206 31.3744 47.4994 31.3744C53.5783 31.3744 58.5262 36.3282 58.5262 42.4144C58.5262 48.5005 53.5783 53.4544 47.4994 53.4544ZM47.4994 37.1538C44.6014 37.1538 42.2452 39.5128 42.2452 42.4144C42.2452 45.3159 44.6014 47.6749 47.4994 47.6749C50.3975 47.6749 52.7537 45.3159 52.7537 42.4144C52.7537 39.5128 50.3975 37.1538 47.4994 37.1538Z" fill="#4B67B1"/>
<path d="M86.7299 92H8.27009C3.69916 92 0 88.2728 0 83.72V21.7261C0 17.1497 3.72272 13.4461 8.27009 13.4461H26.9072L43.4945 1.29743C45.8507 -0.424623 49.1964 -0.424623 51.529 1.29743L68.0928 13.4461H86.7299C91.3008 13.4461 95 17.1733 95 21.7261V83.6964C95 88.2728 91.2773 91.9764 86.7299 91.9764V92ZM8.27009 19.202C6.87996 19.202 5.74901 20.3344 5.74901 21.7261V83.6964C5.74901 85.0882 6.87996 86.2205 8.27009 86.2205H86.7299C88.12 86.2205 89.251 85.0882 89.251 83.6964V21.7261C89.251 20.3344 88.12 19.202 86.7299 19.202H67.1503C66.5377 19.202 65.9487 19.0133 65.4539 18.6359L48.1362 5.92102C47.6885 5.59076 47.3586 5.59076 46.911 5.92102L29.5933 18.6359C29.0985 18.9897 28.5094 19.202 27.8968 19.202H8.27009Z" fill="#4B67B1"/>
</g>
<defs>
<clipPath id="clip0_258_484">
<rect width="95" height="92" fill="white"/>
</clipPath>
</defs>
</svg>
